# xmcd CD database file
#
# Track frame offsets:
#	150
#	19408
#	40958
#	59798
#	75516
#	94460
#	115574
#	134944
#	151378
#	178794
#	193410
#	216807
#	238238
#	255529
#
# Disc length: 3627 seconds
#
# Revision: 1
# Processed by: cddbd v1.5.2PL0 Copyright (c) Steve Scherf et al.
# Submitted via: CDex 1.51
#
DISCID=d60e290e
DTITLE=ganes - rai de surëdl
DYEAR=2010
DGENRE=Pop
TTITLE0=motivaziun
TTITLE1=bel'indó
TTITLE2=jora
TTITLE3=barcaurela
TTITLE4=da sóra
TTITLE5=ci movoia
TTITLE6=chissà
TTITLE7=nia l'dërt
TTITLE8=en pü'd'amur
TTITLE9=tristëza é
TTITLE10=olë est'pa?
TTITLE11=lüna
TTITLE12=bel müs
TTITLE13=dorm sauri
EXTD=YEAR: 2010
EXTT0=
EXTT1=
EXTT2=
EXTT3=
EXTT4=
EXTT5=
EXTT6=
EXTT7=
EXTT8=
EXTT9=
EXTT10=
EXTT11=
EXTT12=
EXTT13=
PLAYORDER=
